<svg width="24" height="24" viewBox="0 0 24 24" fill="none" xmlns="http://www.w3.org/2000/svg">
<path d="M12 13.9746L6.76682 9.12457C6.72465 9.08464 6.67458 9.05307 6.61951 9.03169C6.56444 9.01031 6.50547 8.99954 6.446 9.00001C6.38654 9.00048 6.32776 9.01218 6.27308 9.03443C6.21839 9.05668 6.16888 9.08904 6.12741 9.12963C6.08594 9.17022 6.05333 9.21824 6.03148 9.27092C6.00962 9.32359 5.99895 9.37987 6.00008 9.4365C6.00121 9.49313 6.01413 9.54898 6.03807 9.60082C6.06202 9.65266 6.09652 9.69947 6.13958 9.73853L11.6864 14.8787C11.7703 14.9565 11.8829 15 12 15C12.1171 15 12.2297 14.9565 12.3136 14.8787L17.8604 9.73853C17.9035 9.69947 17.938 9.65266 17.9619 9.60082C17.9859 9.54898 17.9988 9.49313 17.9999 9.4365C18.0011 9.37987 17.9904 9.32359 17.9685 9.27092C17.9467 9.21824 17.9141 9.17022 17.8726 9.12963C17.8311 9.08904 17.7816 9.05668 17.7269 9.03443C17.6722 9.01218 17.6135 9.00049 17.554 9.00001C17.4945 8.99954 17.4356 9.01031 17.3805 9.03169C17.3254 9.05307 17.2754 9.08464 17.2332 9.12457L12 13.9751L12 13.9746Z"/>
<circle cx="12" cy="12" r="11.5" stroke="white"/>
</svg>
