<svg width="24" height="24" viewBox="0 0 24 24" fill="none" xmlns="http://www.w3.org/2000/svg">
<path d="M12 10.0254L6.76682 14.8754C6.72465 14.9154 6.67458 14.9469 6.61951 14.9683C6.56444 14.9897 6.50547 15.0005 6.446 15C6.38654 14.9995 6.32776 14.9878 6.27308 14.9656C6.21839 14.9433 6.16888 14.911 6.12741 14.8704C6.08594 14.8298 6.05333 14.7818 6.03148 14.7291C6.00962 14.6764 5.99895 14.6201 6.00008 14.5635C6.00121 14.5069 6.01413 14.451 6.03807 14.3992C6.06202 14.3473 6.09652 14.3005 6.13958 14.2615L11.6864 9.12133C11.7703 9.04353 11.8829 9 12 9C12.1171 9 12.2297 9.04353 12.3136 9.12133L17.8604 14.2615C17.9035 14.3005 17.938 14.3473 17.9619 14.3992C17.9859 14.451 17.9988 14.5069 17.9999 14.5635C18.0011 14.6201 17.9904 14.6764 17.9685 14.7291C17.9467 14.7818 17.9141 14.8298 17.8726 14.8704C17.8311 14.911 17.7816 14.9433 17.7269 14.9656C17.6722 14.9878 17.6135 14.9995 17.554 15C17.4945 15.0005 17.4356 14.9897 17.3805 14.9683C17.3254 14.9469 17.2754 14.9154 17.2332 14.8754L12 10.0249L12 10.0254Z" fill="#F8B982"/>
<circle cx="12" cy="12" r="11.5" stroke="#F8B982"/>
</svg>
