<svg id="Слой_1" data-name="Слой 1" xmlns="http://www.w3.org/2000/svg" xmlns:xlink="http://www.w3.org/1999/xlink" viewBox="0 0 764.2 835"><defs><style>.cls-1{fill:url(#Безымянный_градиент);}</style><linearGradient id="Безымянный_градиент" x1="923.11" y1="1049.95" x2="218.43" y2="112.42" gradientTransform="matrix(1, 0, 0, -1, 0, 1200.93)" gradientUnits="userSpaceOnUse"><stop offset="0" stop-color="#e4c997"/><stop offset="0.07" stop-color="#ffebb2"/><stop offset="0.17" stop-color="#c89e78"/><stop offset="0.27" stop-color="#e4c997"/><stop offset="0.3" stop-color="#ecd5a7"/><stop offset="0.37" stop-color="#f8eac4"/><stop offset="0.43" stop-color="#fff7d6"/><stop offset="0.48" stop-color="#fffbdc"/><stop offset="0.5" stop-color="#fef5d2"/><stop offset="0.61" stop-color="#ebd4a7"/><stop offset="0.68" stop-color="#e4c997"/><stop offset="0.81" stop-color="#c19b70"/><stop offset="1" stop-color="#e4c997"/></linearGradient></defs><path class="cls-1" d="M324,903.6a51.35,51.35,0,0,0,9-3.3V889.7c0-2.4.1-4.7.1-7l5.3-.5v-3.1H315.7v3.1l9,.7c.1,2.3.1,4.6.1,7v9.5a27.74,27.74,0,0,1-9.2,1.5q-9.9,0-15.6-6c-3.8-4-5.7-9.7-5.7-17a26.54,26.54,0,0,1,2.7-12.5,19.23,19.23,0,0,1,7.4-7.8,20.89,20.89,0,0,1,10.6-2.7,21.37,21.37,0,0,1,9.8,2.2l1.7,8.8h5.3l-.3-11.2a32.67,32.67,0,0,0-7.8-2.7,45.77,45.77,0,0,0-9.5-.9,32.7,32.7,0,0,0-15.4,3.5,26.26,26.26,0,0,0-10.3,9.5,25.46,25.46,0,0,0-3.7,13.8,26,26,0,0,0,3.7,13.9,25.55,25.55,0,0,0,10.2,9.6,32.16,32.16,0,0,0,15.2,3.5A43.44,43.44,0,0,0,324,903.6Zm56.9-.6a25.9,25.9,0,0,0,8.5-5.3,24.48,24.48,0,0,0,5.9-8.5,27.13,27.13,0,0,0,2.2-11.3,27.92,27.92,0,0,0-2.2-11.6,25.72,25.72,0,0,0-6-8.4,24.32,24.32,0,0,0-8.4-5.1,27.76,27.76,0,0,0-19.4.1,25.9,25.9,0,0,0-8.5,5.3,25.12,25.12,0,0,0-6,8.5,27.13,27.13,0,0,0-2.2,11.3,28.73,28.73,0,0,0,2.2,11.7,23.77,23.77,0,0,0,6,8.4,24.73,24.73,0,0,0,8.5,5.1,27.18,27.18,0,0,0,9.7,1.7A29.84,29.84,0,0,0,380.9,903Zm-17.5-4a16.46,16.46,0,0,1-5.3-5.2,24.6,24.6,0,0,1-3.1-7.4,34.11,34.11,0,0,1-1-8.5,33.32,33.32,0,0,1,1-8.4,25.73,25.73,0,0,1,3.1-7.4,15.5,15.5,0,0,1,5.3-5.2,14.67,14.67,0,0,1,7.7-1.9,14.43,14.43,0,0,1,7.7,1.9,15.5,15.5,0,0,1,5.3,5.2,28.7,28.7,0,0,1,3,7.4,40.12,40.12,0,0,1,0,16.9,23,23,0,0,1-3,7.4,15.5,15.5,0,0,1-5.3,5.2,14.7,14.7,0,0,1-7.7,2A15,15,0,0,1,363.4,899Zm47.8-42.8c.1,3.2.2,6.5.2,9.8v23.6c0,3.3-.1,6.6-.2,9.9l-7.9.8v3.2h42.9l.9-14.5h-5.3l-2.5,10.6H419.7c-.1-3.3-.1-6.5-.1-9.7V866c0-3.3.1-6.6.1-9.9l7.9-.8v-3.2H403.2v3.2Zm49.8,0c.1,3.3.2,6.6.2,9.9v23.5c0,3.4-.1,6.8-.2,10l-7.9.8v3.2h23.8a36.34,36.34,0,0,0,15.1-3,24.62,24.62,0,0,0,10.6-8.7,24.28,24.28,0,0,0,3.9-14,26.79,26.79,0,0,0-3.5-14.1,23,23,0,0,0-9.8-8.7,33.39,33.39,0,0,0-14.6-3H453.2v3.2Zm8.3,19.8V865.7c0-3.4.1-6.8.1-10H477c6.3,0,11.1,1.9,14.7,5.7s5.3,9.3,5.3,16.5c0,7-1.8,12.4-5.3,16.3S483,900,476.4,900h-6.8c-.1-3.4-.1-6.8-.1-10.3V876Zm50.3-19.8c.1,3.3.2,6.6.2,9.9v23.8c0,3.3-.1,6.6-.2,9.8l-7.9.8v3.2h44.6l.6-13.7H552l-1.9,9.8h-22c-.1-3.2-.1-6.5-.1-9.8V879.2h12.8l1.1,7.2h4V868.2h-4l-1.2,7.3H527.9v-9.7c0-3.3.1-6.6.1-9.8h20.3l1.9,9.8h4.9l-.6-13.6H511.6v3.2Zm88.4.1v34l-31.1-38.1H563.6v3.2l6.1.6.8.9v42.7l-7.3.9v3.2h20.9v-3.2l-9.1-1.1V862.2l34.5,41.9h3V856.2l7.3-1V852H598.9v3.2Zm46.9-.1c.1,3.3.2,6.6.2,9.9v23.8c0,3.3-.1,6.6-.2,9.8l-7.9.8v3.2h24.5v-3.2l-8-.8c-.1-3.2-.1-6.4-.1-9.8V879.2h13.4l1.2,8h4V868.3h-4l-1.2,7.3H663.4v-9.7c0-3.3.1-6.6.1-9.8h20.3l1.9,9.8h4.9l-.6-13.6H647.1v3.2Zm52.2,47.5v-3.2l-8.4-1,4.8-12.5h20l4.7,12.6-8.4.9v3.2h23.4v-3.2l-6.5-.7-18.4-48h-5.4l-18.4,47.7-7.2,1v3.2Zm15.1-20.3H704.9l8.7-22.9ZM755,856.2c.1,3.2.2,6.5.2,9.8v23.6c0,3.3-.1,6.6-.2,9.9l-7.9.8v3.2H790l.9-14.5h-5.3l-2.5,10.6H763.5c-.1-3.3-.1-6.5-.1-9.7V866c0-3.3.1-6.6.1-9.9l7.9-.8v-3.2H747v3.2Zm80.2,47.7a33.2,33.2,0,0,0,8.4-2.8l.3-11.1h-5.3l-1.7,8.9a33.32,33.32,0,0,1-5.1,1.6,31.39,31.39,0,0,1-5.1.5,21.5,21.5,0,0,1-10.5-2.6,17.11,17.11,0,0,1-7.2-7.8,28.43,28.43,0,0,1-2.6-12.7,26.2,26.2,0,0,1,2.8-12.7,19.2,19.2,0,0,1,7.5-7.7,22.07,22.07,0,0,1,10.5-2.6,21.85,21.85,0,0,1,4.3.5A16.22,16.22,0,0,1,836,857l1.7,8.9H843l-.3-11.2a30,30,0,0,0-8.7-3,47,47,0,0,0-7.9-.7,33.22,33.22,0,0,0-11.6,2,27.73,27.73,0,0,0-9.2,5.6,24.61,24.61,0,0,0-6.1,8.5,25.3,25.3,0,0,0-2.2,10.7,25.91,25.91,0,0,0,3.7,14,24.93,24.93,0,0,0,10.3,9.5,32.55,32.55,0,0,0,15.3,3.4A38.8,38.8,0,0,0,835.2,903.9Zm52.3-.9a25.9,25.9,0,0,0,8.5-5.3,24.48,24.48,0,0,0,5.9-8.5,27.13,27.13,0,0,0,2.2-11.3,27.92,27.92,0,0,0-2.2-11.6,25.72,25.72,0,0,0-6-8.4,24.32,24.32,0,0,0-8.4-5.1,27.76,27.76,0,0,0-19.4.1,25.9,25.9,0,0,0-8.5,5.3,25.12,25.12,0,0,0-6,8.5,27.13,27.13,0,0,0-2.2,11.3,28.73,28.73,0,0,0,2.2,11.7,23.77,23.77,0,0,0,6,8.4,24.73,24.73,0,0,0,8.5,5.1,27.18,27.18,0,0,0,9.7,1.7A29.34,29.34,0,0,0,887.5,903Zm-17.4-4a16.46,16.46,0,0,1-5.3-5.2,24.6,24.6,0,0,1-3.1-7.4,34.11,34.11,0,0,1-1-8.5,33.32,33.32,0,0,1,1-8.4,25.73,25.73,0,0,1,3.1-7.4,15.5,15.5,0,0,1,5.3-5.2,14.67,14.67,0,0,1,7.7-1.9,14.43,14.43,0,0,1,7.7,1.9,15.5,15.5,0,0,1,5.3,5.2,28.7,28.7,0,0,1,3,7.4,40.12,40.12,0,0,1,0,16.9,23,23,0,0,1-3,7.4,15.5,15.5,0,0,1-5.3,5.2,15.82,15.82,0,0,1-15.4,0Zm84.6-42.7v34l-31.1-38.2H910.3v3.2l6.1.6.8.9v42.7l-7.3.9v3.2h20.9v-3.2l-9.1-1.1V862.1L956.2,904h3V856.1l7.3-1v-3.2H945.7v3.2Zm-491.2,140a33.2,33.2,0,0,0,8.4-2.8l.3-11.2h-5.3l-1.7,8.9a33.32,33.32,0,0,1-5.1,1.6,31.39,31.39,0,0,1-5.1.5,21.5,21.5,0,0,1-10.5-2.6,17.11,17.11,0,0,1-7.2-7.8,28.43,28.43,0,0,1-2.6-12.7,26.2,26.2,0,0,1,2.8-12.7,19.2,19.2,0,0,1,7.5-7.7,22.07,22.07,0,0,1,10.5-2.6,21.85,21.85,0,0,1,4.3.5,16.22,16.22,0,0,1,4.5,1.6l1.7,8.9h5.3L471,947a30,30,0,0,0-8.7-3,47,47,0,0,0-7.9-.7,33.22,33.22,0,0,0-11.6,2,27.73,27.73,0,0,0-9.2,5.6,24.61,24.61,0,0,0-6.1,8.5,25.3,25.3,0,0,0-2.2,10.7,25.91,25.91,0,0,0,3.7,14,24.93,24.93,0,0,0,10.3,9.5,32.55,32.55,0,0,0,15.3,3.4A33.78,33.78,0,0,0,463.5,996.3Zm52.3-1a25.9,25.9,0,0,0,8.5-5.3,24.48,24.48,0,0,0,5.9-8.5,27.13,27.13,0,0,0,2.2-11.3,27.92,27.92,0,0,0-2.2-11.6,25.72,25.72,0,0,0-6-8.4,24.32,24.32,0,0,0-8.4-5.1,27.76,27.76,0,0,0-19.4.1,25.9,25.9,0,0,0-8.5,5.3,25.12,25.12,0,0,0-6,8.5,27.13,27.13,0,0,0-2.2,11.3,28.73,28.73,0,0,0,2.2,11.7,23.77,23.77,0,0,0,6,8.4,24.73,24.73,0,0,0,8.5,5.1,27.18,27.18,0,0,0,9.7,1.7A25,25,0,0,0,515.8,995.3Zm-17.4-4a16.46,16.46,0,0,1-5.3-5.2,24.6,24.6,0,0,1-3.1-7.4,34.11,34.11,0,0,1-1-8.5,33.32,33.32,0,0,1,1-8.4,25.73,25.73,0,0,1,3.1-7.4,15.5,15.5,0,0,1,5.3-5.2,14.67,14.67,0,0,1,7.7-1.9,14.43,14.43,0,0,1,7.7,1.9,15.5,15.5,0,0,1,5.3,5.2,28.7,28.7,0,0,1,3,7.4,40.12,40.12,0,0,1,0,16.9,23,23,0,0,1-3,7.4,15.5,15.5,0,0,1-5.3,5.2,14.7,14.7,0,0,1-7.7,2A13.61,13.61,0,0,1,498.4,991.3Zm59,4.7v-3.2l-7.1-1V967.6l-.5-14.5L569.5,996h4.3l18.7-42.9v29.1c0,3.3-.1,6.6-.2,9.8l-7.2.8V996h23.4v-3.2l-7.9-.8c-.1-3.3-.1-6.7-.1-10V958.3c0-3.3.1-6.6.1-9.8l7.9-.8v-3.2h-17l-18.3,42.3-19.3-42.3H538v3.2l7.8.8v43.3l-7.8,1V996Zm66.8-47.5c.1,3.3.2,6.6.2,9.9v23.8c0,3.3-.1,6.6-.2,9.8l-7.9.8V996h24.5v-3.2l-8-.8c-.1-2.8-.1-5.5-.1-8.2v-8.2h4.5c5.9,0,10.6-.7,14.2-2.2a16.24,16.24,0,0,0,7.7-5.8,14.1,14.1,0,0,0,2.4-7.9,13.15,13.15,0,0,0-5.5-11c-3.6-2.8-9.1-4.3-16.4-4.3H616.4v3.2Zm25.1,2.6a11,11,0,0,1,3.6,8.7,11.83,11.83,0,0,1-3.4,8.8c-2.2,2.3-6,3.4-11.2,3.4h-5.7V958c0-3.4.1-6.8.1-10h5.2C643.1,948.1,646.9,949.1,649.3,951.1ZM678.1,996v-3.2l-8.4-1,4.8-12.5h20l4.7,12.6-8.4.9V996h23.4v-3.2l-6.5-.7-18.4-48h-5.4l-18.4,47.7-7.2,1V996Zm15.1-20.3H675.9l8.7-22.9Zm69.3-27v34l-31.1-38.2H718.1v3.2l6.1.6.8.9v42.7l-7.3.9V996h20.9v-3.2l-9.1-1.1V954.5L764,996.4h3V948.5l7.3-1v-3.2H753.5v3.2Zm23.2-.3L801,976.1v8.4c0,2.6-.1,5.1-.2,7.5l-8.8.8V996h26v-3.2l-8.8-.8c-.1-2.5-.1-5-.1-7.7v-8.5l14.7-27.1,7.6-1v-3.2H811.7v3.2l7.8.9-12.3,23.2-12-23.3,8.2-.8v-3.2H778.9v3.2Zm27.9-444.2V391.8a534.12,534.12,0,0,1-62.4-6.8l-.3,174.2V722.8h62.8V555.4H940.3V504.2ZM463.3,514.5v50.1H607c-4.8,32.7-17.8,58.5-39.1,77.6s-49,28.6-83.1,28.6q-37.95,0-67.7-17.1T370.6,605q-16.8-31.65-16.8-72.9,0-33,10.7-59.7a214,214,0,0,0-31.2,185.8l-.2-.2a186.31,186.31,0,0,0,53.2,44.5q44.55,25.05,98.5,25.1,50.1,0,91.1-22.3a190,190,0,0,0,98.3-141.7v-49H463.3Zm195.1-92.7c-3.3-2.6-6.7-5.2-10.2-7.6-1.6-1.1-3.1-2.2-4.7-3.2a207.45,207.45,0,0,0-18.2-10.8A190.77,190.77,0,0,0,602.8,390c-.8-.3-1.7-.7-2.5-1a212.25,212.25,0,0,0-74.6-13.4,222.47,222.47,0,0,0-32.9,2.5,208.07,208.07,0,0,0-44.6,12c-6.1,2.4-12,5-17.7,7.9a215,215,0,0,0-62.3,47,200.07,200.07,0,0,0-15.9,19.6,214,214,0,0,0-31.2,185.8l-.2-.2a39.68,39.68,0,0,1-3.7-3.5c-5.9-6.3-11.9-16.2-17.3-28.6-9-20.4-16.4-47.4-19.3-75.3-2.9-26.8-1.7-54.6,6.1-78.4a152.62,152.62,0,0,1,35.5-58.9c27.7-28.6,58.8-39.3,61.9-40.1a237,237,0,0,0-139.9,76.5v-.1A237.25,237.25,0,0,1,454.7,314.1a242.44,242.44,0,0,1,43.7,4,237.82,237.82,0,0,0-206.7,25.7,213.25,213.25,0,0,1,162.1-74.5c6.4,0,94.9-3.5,131,52.7C587.5,326.5,644.4,335.2,658.4,421.8ZM565.5,321.5c-26.7,0-52.8-22.1-52.8-22.1S554,358.3,565.5,321.5Zm411,50.6h-.4v8.3h-131s-127.7,1.4-168.8-36.6c0,0,47.2,15.1,76.5,6.6-80-9-95.5-35.9-95.8-36.1.2,0,34.3,18.7,64.3,12-7.9-1.3-70-15.7-88.9-56.5,64.9,47.4,182.6,59.6,212.7,59.4s131,0,131,0v.1h.4Zm28.7-107.2L625.7,173.8,246.2,264.9,243.6,254l382.1-91.8L1007.8,254ZM975.8,792.7H277.1V781.5H975.8Z" transform="translate(-243.6 -162.2)"/></svg>