<svg width="20" height="20" viewBox="0 0 20 20" fill="none" xmlns="http://www.w3.org/2000/svg">
<path d="M9.87 0.00777774L10 0C10.2721 3.59006e-05 10.5348 0.0999513 10.7382 0.280795C10.9416 0.461638 11.0715 0.710832 11.1033 0.981111L11.1111 1.11111V8.88889H18.8889C19.161 8.88893 19.4237 8.98884 19.6271 9.16968C19.8305 9.35053 19.9604 9.59972 19.9922 9.87L20 10C20 10.2721 19.9 10.5348 19.7192 10.7382C19.5384 10.9416 19.2892 11.0715 19.0189 11.1033L18.8889 11.1111H11.1111V18.8889C11.1111 19.161 11.0112 19.4237 10.8303 19.6271C10.6495 19.8305 10.4003 19.9604 10.13 19.9922L10 20C9.72785 20 9.46518 19.9 9.26181 19.7192C9.05844 19.5384 8.92851 19.2892 8.89667 19.0189L8.88889 18.8889V11.1111H1.11111C0.838963 11.1111 0.576292 11.0112 0.37292 10.8303C0.169548 10.6495 0.0396191 10.4003 0.00777774 10.13L0 10C3.59006e-05 9.72785 0.0999513 9.46518 0.280795 9.26181C0.461638 9.05844 0.710832 8.92851 0.981111 8.89667L1.11111 8.88889H8.88889V1.11111C8.88893 0.838963 8.98884 0.576292 9.16968 0.37292C9.35053 0.169548 9.59972 0.0396191 9.87 0.00777774L10 0L9.87 0.00777774Z" fill="#4B4B4B"/>
</svg>
