<svg width="40" height="36" viewBox="0 0 40 36" fill="none" xmlns="http://www.w3.org/2000/svg">
<path fill-rule="evenodd" clip-rule="evenodd" d="M40 18C40 17.3181 39.7366 16.6642 39.2678 16.1821C38.7991 15.6999 38.1632 15.429 37.5003 15.429H8.53851L19.2723 4.39446C19.7417 3.9117 20.0054 3.25694 20.0054 2.57421C20.0054 1.89149 19.7417 1.23673 19.2723 0.75397C18.8029 0.271211 18.1663 0 17.5025 0C16.8387 0 16.2021 0.271211 15.7327 0.75397L0.734386 16.1798C0.501595 16.4186 0.316902 16.7023 0.190884 17.0146C0.0648651 17.327 0 17.6618 0 18C0 18.3382 0.0648651 18.673 0.190884 18.9854C0.316902 19.2977 0.501595 19.5814 0.734386 19.8202L15.7327 35.246C16.2021 35.7288 16.8387 36 17.5025 36C18.1663 36 18.8029 35.7288 19.2723 35.246C19.7417 34.7633 20.0054 34.1085 20.0054 33.4258C20.0054 32.7431 19.7417 32.0883 19.2723 31.6055L8.53851 20.571H37.5003C38.1632 20.571 38.7991 20.3001 39.2678 19.8179C39.7366 19.3358 40 18.6819 40 18Z" fill="white"/>
</svg>
