<svg width="40" height="36" viewBox="0 0 40 36" fill="none" xmlns="http://www.w3.org/2000/svg">
<path fill-rule="evenodd" clip-rule="evenodd" d="M0 18C0 17.3181 0.263363 16.6642 0.732152 16.1821C1.20094 15.6999 1.83675 15.429 2.49972 15.429H31.4615L20.7277 4.39446C20.2583 3.9117 19.9946 3.25694 19.9946 2.57421C19.9946 1.89149 20.2583 1.23673 20.7277 0.75397C21.1971 0.271211 21.8337 0 22.4975 0C23.1613 0 23.7979 0.271211 24.2673 0.75397L39.2656 16.1798C39.4984 16.4186 39.6831 16.7023 39.8091 17.0146C39.9351 17.327 40 17.6618 40 18C40 18.3382 39.9351 18.673 39.8091 18.9854C39.6831 19.2977 39.4984 19.5814 39.2656 19.8202L24.2673 35.246C23.7979 35.7288 23.1613 36 22.4975 36C21.8337 36 21.1971 35.7288 20.7277 35.246C20.2583 34.7633 19.9946 34.1085 19.9946 33.4258C19.9946 32.7431 20.2583 32.0883 20.7277 31.6055L31.4615 20.571H2.49972C1.83675 20.571 1.20094 20.3001 0.732152 19.8179C0.263363 19.3358 0 18.6819 0 18Z" fill="white"/>
</svg>
